<svg width="140" height="40" viewBox="0 0 431 125" fill="none" xmlns="http://www.w3.org/2000/svg">
  <path d="M96.7698 105.001C90.4541 114.818 80.7031 121.93 69.1791 124.766C54.1558 128.459 38.5125 124.693 26.3092 114.818C14.106 104.944 7.64376 89.9274 8.74922 74.6915C9.85468 59.4556 18.3733 45.7923 31.6682 37.923C44.9632 30.0537 61.3679 29.2448 75.339 35.7446C89.3101 42.2443 99.0611 55.1061 101.271 70.2677C103.481 85.4293 98.9802 100.811 89.2288 112.12" stroke="#1A1D23" stroke-width="8" stroke-linecap="round" stroke-linejoin="round"/>
  <path d="M70.1226 30.5436C63.0144 30.5436 56.0702 32.5736 50.1086 36.3976C44.147 40.2217 39.4591 45.6845 36.6542 52.0861C33.8493 58.4877 33.0604 65.5331 34.3806 72.3327C35.7008 79.1323 39.0756 85.3707 44.0897 90.1785C49.1037 94.9863 55.5047 98.2187 62.4871 99.4824C69.4695 100.746 76.7058 99.9839 83.2788 97.2843C89.8518 94.5847 95.4583 90.0731 99.3854 84.3265C103.313 78.5799 105.405 71.8721 105.405 65.0028C105.404 55.7893 101.484 46.9359 94.3012 40.288C87.1188 33.6401 77.5767 30.5435 70.1226 30.5436Z" stroke="#1A1D23" stroke-width="8" stroke-linecap="round" stroke-linejoin="round"/>
  <path d="M43.5713 64.9995H96.6739" stroke="#1A1D23" stroke-width="8" stroke-linecap="round" stroke-linejoin="round"/>
  <path d="M160.122 79.5008C155.766 79.5008 151.732 78.6178 148.021 76.8517C144.311 75.0857 141.398 72.5286 139.284 69.1806C137.17 65.8326 136.113 62.0028 136.113 57.6913C136.113 53.3798 137.17 49.5631 139.284 46.2413C141.398 42.9194 144.311 40.3754 148.021 38.6094C151.732 36.8433 155.766 35.9603 160.122 35.9603C164.479 35.9603 168.513 36.8433 172.224 38.6094C175.934 40.3754 178.847 42.9194 180.961 46.2413C183.075 49.5631 184.132 53.3798 184.132 57.6913C184.132 62.0028 183.075 65.8326 180.961 69.1806C178.847 72.5286 175.934 75.0857 172.224 76.8517C168.513 78.6178 164.479 79.5008 160.122 79.5008ZM160.122 70.5874C164.085 70.5874 167.314 69.3638 169.809 66.9167C172.304 64.4695 173.552 61.3631 173.552 57.5973C173.552 53.8315 172.304 50.7251 169.809 48.278C167.314 45.8308 164.085 44.6073 160.122 44.6073C156.16 44.6073 152.931 45.8308 150.436 48.278C147.941 50.7251 146.693 53.8315 146.693 57.5973C146.693 61.3631 147.941 64.4695 150.436 66.9167C152.931 69.3638 156.16 70.5874 160.122 70.5874Z" fill="#1A1D23"/>
  <path d="M190.133 78.4365V36.8552H200.431V78.4365H190.133ZM195.235 30.2529C193.544 30.2529 192.08 29.7171 190.842 28.6454C189.604 27.5738 188.985 26.1726 188.985 24.4417C188.985 22.7578 189.588 21.3729 190.794 20.287C192 19.2012 193.48 18.6583 195.235 18.6583C196.99 18.6583 198.47 19.1859 199.676 20.2411C200.882 21.2964 201.485 22.6426 201.485 24.2799C201.485 26.1039 200.882 27.5738 199.676 28.6893C198.47 29.8048 197.007 30.2529 195.235 30.2529Z" fill="#1A1D23"/>
  <path d="M235.644 35.9674C239.928 35.9674 243.415 37.3544 246.103 40.1283C248.792 42.9023 250.137 47.0522 250.137 52.5782V78.4436H239.839V54.3442C239.839 51.6251 239.188 49.5057 237.886 47.9859C236.585 46.4662 234.734 45.7063 232.333 45.7063C229.449 45.7063 227.108 46.6204 225.312 48.4486C223.516 50.2768 222.618 52.9364 222.618 56.4275V78.4436H212.32V36.8624H222.235V43.9431C223.451 41.4959 225.281 39.6218 227.724 38.3207C230.168 37.0196 232.76 36.369 235.5 36.369C235.548 36.369 235.596 36.3677 235.644 36.3677V35.9674Z" fill="#1A1D23"/>
  <path d="M273.107 79.5008C268.709 79.5008 264.675 78.6178 261.006 76.8517C257.337 75.0857 254.46 72.5286 252.378 69.1806C250.296 65.8326 249.255 62.0028 249.255 57.6913C249.255 53.3798 250.296 49.5631 252.378 46.2413C254.46 42.9194 257.337 40.3754 261.006 38.6094C264.675 36.8433 268.709 35.9603 273.107 35.9603C277.885 35.9603 282.146 36.9541 285.889 38.9417C289.631 40.9294 292.451 43.8076 294.348 47.5765L285.889 52.1274C284.475 49.8732 282.704 48.1918 280.575 47.0834C278.446 45.9749 275.986 45.4206 273.196 45.4206C269.234 45.4206 266.022 46.6441 263.558 49.0913C261.095 51.5384 259.863 54.2963 259.863 57.765C259.863 61.2337 261.095 64.0152 263.558 66.4094C266.022 68.8036 269.234 70.0007 273.196 70.0007C275.986 70.0007 278.446 69.4622 280.575 68.3845C282.704 67.3069 284.475 65.6568 285.889 63.4344L294.348 67.9435C292.451 71.6584 289.631 74.5133 285.889 76.5101C282.146 78.5068 277.885 79.5008 273.107 79.5008Z" fill="#1A1D23"/>
  <path d="M318.284 79.5008C313.927 79.5008 309.893 78.6178 306.183 76.8517C302.472 75.0857 299.559 72.5286 297.445 69.1806C295.331 65.8326 294.274 62.0028 294.274 57.6913C294.274 53.3798 295.331 49.5631 297.445 46.2413C299.559 42.9194 302.472 40.3754 306.183 38.6094C309.893 36.8433 313.927 35.9603 318.284 35.9603C322.64 35.9603 326.675 36.8433 330.385 38.6094C334.096 40.3754 337.009 42.9194 339.123 46.2413C341.237 49.5631 342.294 53.3798 342.294 57.6913C342.294 62.0028 341.237 65.8326 339.123 69.1806C337.009 72.5286 334.096 75.0857 330.385 76.8517C326.675 78.6178 322.64 79.5008 318.284 79.5008ZM318.284 70.5874C322.247 70.5874 325.476 69.3638 327.971 66.9167C330.466 64.4695 331.714 61.3631 331.714 57.5973C331.714 53.8315 330.466 50.7251 327.971 48.278C325.476 45.8308 322.247 44.6073 318.284 44.6073C314.322 44.6073 311.093 45.8308 308.598 48.278C306.103 50.7251 304.855 53.8315 304.855 57.5973C304.855 61.3631 306.103 64.4695 308.598 66.9167C311.093 69.3638 314.322 70.5874 318.284 70.5874Z" fill="#1A1D23"/>
  <path d="M379.5 62.1964C379.5 62.3582 379.42 63.1943 379.261 64.7047H351.765C352.243 66.7972 353.369 68.4626 355.144 69.7007C356.919 70.9389 359.092 71.558 361.663 71.558C363.332 71.558 364.792 71.2948 366.046 70.7685C367.299 70.2422 368.473 69.3934 369.567 68.222L376.739 74.1526C373.456 77.7177 368.391 79.5002 361.541 79.5002C356.713 79.5002 352.499 78.6172 348.897 76.8511C345.296 75.0851 342.543 72.528 340.636 69.18C338.729 65.832 337.776 62.0022 337.776 57.6907C337.776 53.4183 338.713 49.5772 340.588 46.2676C342.462 42.9581 345.103 40.398 348.511 38.5873C351.918 36.7766 355.78 35.8713 360.097 35.8713C364.254 35.8713 367.978 36.7033 371.267 38.3673C374.556 40.0314 377.133 42.5027 378.996 45.7812C380.859 49.0597 381.79 53.0014 381.79 57.6062C381.79 58.6017 381.694 60.0419 381.5 62.0044" fill="#1A1D23"/>
  <path d="M379.5 62.1964C379.5 62.3582 379.42 63.1943 379.261 64.7047H351.765C352.243 66.7972 353.369 68.4626 355.144 69.7007C356.919 70.9389 359.092 71.558 361.663 71.558C363.332 71.558 364.792 71.2948 366.046 70.7685C367.299 70.2422 368.473 69.3934 369.567 68.222L376.739 74.1526C373.456 77.7177 368.391 79.5002 361.541 79.5002C356.713 79.5002 352.499 78.6172 348.897 76.8511C345.296 75.0851 342.543 72.528 340.636 69.18C338.729 65.832 337.776 62.0022 337.776 57.6907C337.776 53.4183 338.713 49.5772 340.588 46.2676C342.462 42.9581 345.103 40.398 348.511 38.5873C351.918 36.7766 355.78 35.8713 360.097 35.8713C364.254 35.8713 367.978 36.7033 371.267 38.3673C374.556 40.0314 377.133 42.5027 378.996 45.7812C380.859 49.0597 381.79 53.0014 381.79 57.6062C381.79 58.6017 381.694 60.0419 381.5 62.0044" stroke="#1A1D23" stroke-width="3"/>
  <path d="M372.134 44.3569H360.288C357.493 44.3569 354.826 45.4467 352.857 47.3881C350.888 49.3294 349.783 51.9609 349.783 54.7199V54.7199H371.845C374.641 54.7199 377.308 53.6301 379.277 51.6887C381.246 49.7474 382.351 47.1159 382.351 44.3569V44.3569H372.134Z" fill="#1A1D23"/>
  <path d="M430.128 36.8641V78.4454H419.831V71.8026C418.615 74.0792 416.833 75.8532 414.484 77.1246C412.136 78.396 409.424 79.0318 406.349 79.0318C402.767 79.0318 399.651 78.2303 396.999 76.6274C394.347 75.0245 392.313 72.6615 390.899 69.5387C389.484 66.4159 388.777 62.8028 388.777 58.6994V36.8641H399.075V57.154C399.075 60.9198 399.725 63.4384 401.027 64.7099C402.329 65.9813 404.18 66.6171 406.582 66.6171C409.466 66.6171 411.806 65.703 413.603 63.8748C415.399 62.0466 416.296 59.387 416.296 55.8959V36.8641H426.594H430.128Z" fill="#1A1D23"/>
  <path d="M385.133 79V24H395.43V79H385.133Z" fill="#1A1D23"/>
</svg> 