<?xml version="1.0" encoding="UTF-8"?>
<svg width="180" height="180" viewBox="0 0 180 180" fill="none" xmlns="http://www.w3.org/2000/svg">
  <g clip-path="url(#clip0_3405_56789)">
    <!-- Background elements -->
    <path d="M135.14 41.65C139.79 50.65 132.48 66.42 124.62 79.31C116.77 92.2 108.35 102.21 101.44 115.07C94.52 127.93 89.11 143.63 77.37 149.9C65.62 156.17 47.55 152.99 38.8 141.18C30.04 129.37 30.6 108.91 32.97 93.7C35.34 78.48 39.52 68.49 44.79 58.29C50.05 48.09 56.39 37.68 66.53 31.46C76.68 25.25 90.63 23.24 102.37 27.57C114.11 31.89 123.66 42.55 129.94 49.07C136.23 55.59 139.25 57.98 135.14 41.65Z" fill="#EEF2FF"/>
    <!-- Paper elements -->
    <path d="M124.5 99.5C124.5 102.26 122.26 104.5 119.5 104.5H68.5C65.74 104.5 63.5 102.26 63.5 99.5V48.5C63.5 45.74 65.74 43.5 68.5 43.5H119.5C122.26 43.5 124.5 45.74 124.5 48.5V99.5Z" fill="white" stroke="#E5E7EB"/>
    <rect x="70.5" y="54.5" width="47" height="4" rx="1" fill="#E5E7EB"/>
    <rect x="70.5" y="62.5" width="47" height="4" rx="1" fill="#E5E7EB"/>
    <rect x="70.5" y="70.5" width="47" height="4" rx="1" fill="#E5E7EB"/>
    <rect x="70.5" y="78.5" width="30" height="4" rx="1" fill="#E5E7EB"/>
    <rect x="70.5" y="90.5" width="20" height="7" rx="3.5" fill="#4F46E5"/>
    <!-- Character -->
    <path d="M46 130C58.7025 130 69 119.702 69 107C69 94.2975 58.7025 84 46 84C33.2975 84 23 94.2975 23 107C23 119.702 33.2975 130 46 130Z" fill="#FEF3C7"/>
    <path d="M46 127C57.0457 127 66 118.046 66 107C66 95.9543 57.0457 87 46 87C34.9543 87 26 95.9543 26 107C26 118.046 34.9543 127 46 127Z" fill="#F59E0B"/>
    <path d="M46 85C33.85 85 24 94.85 24 107C24 119.15 33.85 129 46 129C58.15 129 68 119.15 68 107C68 94.85 58.15 85 46 85ZM37 97C37 96.2044 37.3161 95.4413 37.8787 94.8787C38.4413 94.3161 39.2043 94 40 94C40.7956 94 41.5587 94.3161 42.1213 94.8787C42.6839 95.4413 43 96.2044 43 97C43 97.7956 42.6839 98.5587 42.1213 99.1213C41.5587 99.6839 40.7956 100 40 100C39.2043 100 38.4413 99.6839 37.8787 99.1213C37.3161 98.5587 37 97.7956 37 97ZM56 97C56 96.2044 56.3161 95.4413 56.8787 94.8787C57.4413 94.3161 58.2043 94 59 94C59.7956 94 60.5587 94.3161 61.1213 94.8787C61.6839 95.4413 62 96.2044 62 97C62 97.7956 61.6839 98.5587 61.1213 99.1213C60.5587 99.6839 59.7956 100 59 100C58.2043 100 57.4413 99.6839 56.8787 99.1213C56.3161 98.5587 56 97.7956 56 97ZM46 121C39.935 121 35 116.065 35 110H38C38 114.42 41.58 118 46 118C50.42 118 54 114.42 54 110H57C57 116.065 52.065 121 46 121Z" fill="#FBBF24"/>
    <!-- Stylized plants -->
    <path d="M148.5 128.5C155.5 124.5 163 135.5 148.5 142.5C134 149.5 130.5 136 139 132C147.5 128 143.5 131.5 148.5 128.5Z" fill="#E2E8F0"/>
    <path d="M152 134.5C154.8 136.1 151.333 142.667 149 145.5L144 141C146.8 138.6 149.2 132.9 152 134.5Z" fill="#94A3B8"/>
    <path d="M125 149.5C123.8 146.3 129.5 142.5 132 143.5C134.5 144.5 135.5 148 132 149.5C128.5 151 126.2 152.7 125 149.5Z" fill="#94A3B8"/>
    <!-- Documents/UI -->
    <path d="M101 58.5L111 48.5H132.5V129.5H101V58.5Z" fill="white" stroke="#E5E7EB"/>
    <path d="M101 58.5H111V48.5" stroke="#E5E7EB"/>
    <rect x="107.5" y="68.5" width="19" height="3" rx="1.5" fill="#E5E7EB"/>
    <rect x="107.5" y="75.5" width="19" height="3" rx="1.5" fill="#E5E7EB"/>
    <rect x="107.5" y="82.5" width="19" height="3" rx="1.5" fill="#E5E7EB"/>
    <rect x="107.5" y="89.5" width="10" height="3" rx="1.5" fill="#E5E7EB"/>
    <rect x="107.5" y="100.5" width="19" height="6" rx="3" fill="#4F46E5"/>
  </g>
  <defs>
    <clipPath id="clip0_3405_56789">
      <rect width="180" height="180" rx="8" fill="white"/>
    </clipPath>
  </defs>
</svg>
